<svg width="997" height="615" viewBox="0 0 997 615" fill="none" xmlns="http://www.w3.org/2000/svg">
<g style="mix-blend-mode:difference" opacity="0.65" clip-path="url(#clip0_30_742)">
<path style="mix-blend-mode:color-dodge" d="M7.62939e-06 436.579V615H997V436.579H960.49V425.33H967.934C969.608 425.33 970.985 424.832 970.985 424.202V417.897C970.985 417.267 969.608 416.769 967.934 416.769H935.183C941.341 409.432 944.671 400.515 944.673 391.352C944.673 372.338 913.523 356.245 901.502 350.737C901.633 350.405 901.708 350.059 901.725 349.708C901.717 348.823 901.407 347.961 900.835 347.238C900.263 346.514 899.457 345.964 898.524 345.66L897.892 318.019C897.845 317.798 897.714 317.599 897.52 317.456C897.326 317.313 897.083 317.234 896.831 317.234C896.579 317.234 896.336 317.313 896.142 317.456C895.948 317.599 895.817 317.798 895.77 318.019L895.138 345.693C894.199 345.978 893.385 346.519 892.811 347.24C892.237 347.961 891.931 348.824 891.937 349.708C891.954 350.059 892.029 350.405 892.16 350.737C880.995 355.913 853.083 370.281 849.473 387.668C839.052 380.335 822.714 369.684 815.978 361.322L814.973 325.352C816.905 325.345 818.825 325.076 820.667 324.556C825.672 323.122 829.852 320.003 832.316 315.862C830.393 317.352 828.152 318.481 825.728 319.18C821.446 320.518 816.762 320.414 812.559 318.888C808.356 317.362 804.924 314.519 802.907 310.895C800.89 307.27 800.429 303.113 801.609 299.207C802.789 295.3 805.53 291.912 809.316 289.681C808.898 289.749 808.487 289.849 808.088 289.98C803.719 291.23 799.953 293.762 797.404 297.163C794.854 300.565 793.671 304.635 794.046 308.712C794.421 312.79 796.333 316.634 799.471 319.619C802.608 322.604 806.786 324.555 811.326 325.153L810.321 361.288C802.654 370.613 783.152 382.857 773.29 390.057C780.733 379.074 787.135 359.331 759.818 338.592C748.652 330.064 722.415 314.004 712.478 301.925L711.026 258.025C713.387 257.986 715.73 257.651 717.986 257.03C724.113 255.276 729.237 251.469 732.277 246.411C729.927 248.243 727.177 249.621 724.201 250.46C718.978 251.991 713.312 251.792 708.24 249.9C703.169 248.007 699.032 244.548 696.59 240.157C694.148 235.765 693.563 230.736 694.943 225.991C696.323 221.246 699.576 217.104 704.104 214.324C703.586 214.426 703.076 214.559 702.578 214.722C697.202 216.241 692.563 219.341 689.42 223.517C686.278 227.692 684.819 232.695 685.281 237.706C685.744 242.718 688.101 247.44 691.967 251.102C695.832 254.763 700.978 257.145 706.56 257.859L705.332 302.124C698.186 310.818 682.704 321.569 670.311 330.097C667.523 315.075 661.18 300.755 651.703 288.088C605.479 229.057 546.714 213.13 516.159 202.91C518.111 200.468 519.429 197.671 520.02 194.72C520.611 191.769 520.46 188.738 519.577 185.845C518.694 182.953 517.101 180.272 514.914 177.995C512.727 175.718 509.999 173.903 506.93 172.68C508.544 171.264 509.735 169.509 510.395 167.577C511.055 165.644 511.162 163.596 510.707 161.617C510.252 159.638 509.25 157.792 507.79 156.247C506.331 154.702 504.461 153.507 502.352 152.771L501.831 128.614C506.781 127.752 510.354 125.595 510.354 123.007C510.354 120.418 506.632 118.228 501.645 117.399L501.459 96.1954C504.845 95.4985 507.227 93.939 507.227 92.114C507.227 90.2889 504.771 88.7957 501.31 88.0325L500.342 61.0885C508.701 60.5458 516.58 57.4001 522.601 52.2017C528.622 47.0033 532.402 40.083 533.279 32.6513C531.784 37.1631 529.092 41.2875 525.431 44.6757C521.77 48.0639 517.248 50.6163 512.247 52.1171C507.246 53.6179 501.913 54.023 496.7 53.298C491.486 52.573 486.545 50.7393 482.294 47.9521C478.043 45.1648 474.608 41.5058 472.278 37.2846C469.948 33.0633 468.793 28.404 468.909 23.7005C469.026 18.9971 470.411 14.3878 472.948 10.2625C475.485 6.13715 479.098 2.61711 483.483 0C476.134 2.79421 470.047 7.70397 466.196 13.9448C462.344 20.1857 460.95 27.3975 462.235 34.4279C463.521 41.4584 467.412 47.9018 473.288 52.7286C479.163 57.5555 486.684 60.4872 494.648 61.0554L493.68 88.0325C490.219 88.6962 487.763 90.2558 487.763 92.114C487.763 93.9722 490.145 95.4322 493.531 96.1954L493.197 117.532C488.135 118.328 484.488 120.551 484.488 123.139C484.488 125.728 488.023 127.884 493.011 128.747L492.638 152.406C490.522 153.136 488.645 154.327 487.18 155.872C485.714 157.417 484.708 159.265 484.252 161.246C483.796 163.228 483.906 165.28 484.572 167.214C485.237 169.148 486.437 170.902 488.061 172.315C484.061 173.932 480.668 176.541 478.286 179.83C475.904 183.119 474.633 186.949 474.625 190.864C474.621 195.065 476.091 199.161 478.831 202.578C448.276 212.798 389.511 228.725 343.287 287.757C333.768 300.42 327.362 314.737 324.493 329.765C312.137 321.237 296.655 310.52 289.472 301.826L288.132 258.025C290.493 257.986 292.836 257.651 295.092 257.03C301.225 255.285 306.352 251.476 309.383 246.411C307.043 248.243 304.308 249.629 301.346 250.486C298.384 251.342 295.257 251.65 292.156 251.392C289.056 251.134 286.047 250.314 283.314 248.984C280.582 247.653 278.182 245.839 276.263 243.653C274.343 241.467 272.944 238.954 272.151 236.27C271.358 233.585 271.188 230.784 271.651 228.039C272.115 225.293 273.201 222.661 274.845 220.303C276.488 217.945 278.654 215.91 281.21 214.324C280.703 214.422 280.205 214.555 279.721 214.722C274.315 216.214 269.64 219.306 266.472 223.486C263.303 227.667 261.828 232.687 262.293 237.716C262.757 242.745 265.132 247.482 269.025 251.145C272.918 254.807 278.096 257.176 283.703 257.859L282.475 302.124C272.538 314.203 246.338 330.296 235.098 338.824C207.818 359.53 214.145 379.24 221.589 390.223C211.726 383.023 192.299 370.845 184.632 361.521L183.628 325.551C185.56 325.546 187.48 325.278 189.322 324.755C194.327 323.321 198.507 320.202 200.971 316.061C199.045 317.408 196.841 318.403 194.484 318.99C192.127 319.577 189.663 319.744 187.234 319.482C184.804 319.22 182.456 318.534 180.324 317.463C178.192 316.392 176.317 314.957 174.807 313.241C173.297 311.524 172.181 309.558 171.522 307.457C170.864 305.355 170.676 303.159 170.97 300.993C171.264 298.827 172.033 296.733 173.234 294.832C174.436 292.931 176.045 291.26 177.97 289.913C177.552 289.982 177.141 290.081 176.742 290.212C172.373 291.465 168.609 294 166.061 297.404C163.514 300.808 162.334 304.88 162.714 308.958C163.094 313.036 165.011 316.88 168.152 319.862C171.294 322.845 175.476 324.792 180.017 325.385L178.975 361.521C172.128 369.883 155.789 380.534 145.48 387.867C141.759 370.48 114.032 356.079 102.793 350.936C102.906 350.6 102.981 350.256 103.016 349.907C103.008 349.022 102.697 348.16 102.126 347.437C101.554 346.713 100.748 346.163 99.8153 345.859L99.1827 318.218C99.1827 317.971 99.0729 317.735 98.8775 317.561C98.6821 317.387 98.417 317.289 98.1406 317.289C97.8569 317.288 97.5837 317.384 97.3763 317.557C97.169 317.729 97.0429 317.966 97.024 318.218L96.3914 345.892C95.466 346.191 94.6663 346.737 94.1005 347.455C93.5346 348.173 93.23 349.029 93.228 349.907C93.2449 350.258 93.3202 350.604 93.4513 350.936C81.4302 356.444 50.2798 372.537 50.2798 391.551C50.2663 400.717 53.5974 409.638 59.7701 416.968H27.0193C25.3445 416.968 23.9676 417.466 23.9676 418.097V424.401C23.9676 425.032 25.3445 425.529 27.0193 425.529H34.4627V436.778L7.62939e-06 436.579Z" fill="url(#paint0_linear_30_742)"/>
</g>
<defs>
<linearGradient id="paint0_linear_30_742" x1="575.743" y1="47.7161" x2="499.777" y2="639.002" gradientUnits="userSpaceOnUse">
<stop offset="0.02" stop-color="#874B29"/>
<stop offset="0.12" stop-color="#6B3C21"/>
<stop offset="0.27" stop-color="#452615"/>
<stop offset="0.42" stop-color="#27160C"/>
<stop offset="0.57" stop-color="#110A05"/>
<stop offset="0.72" stop-color="#040201"/>
<stop offset="0.85"/>
</linearGradient>
<clipPath id="clip0_30_742">
<rect width="997" height="615" fill="white"/>
</clipPath>
</defs>
</svg>
